<svg id="visual" viewBox="0 0 900 600" width="900" height="600" xmlns="http://www.w3.org/2000/svg" xmlns:xlink="http://www.w3.org/1999/xlink" version="1.1"><rect x="0" y="0" width="900" height="600" fill="#FFFFFF"></rect><g fill="#f6b60e"><circle r="66" cx="284" cy="487"></circle><circle r="21" cx="332" cy="77"></circle><circle r="36" cx="75" cy="478"></circle><circle r="39" cx="170" cy="38"></circle><circle r="43" cx="640" cy="296"></circle><circle r="58" cx="756" cy="582"></circle><circle r="37" cx="621" cy="528"></circle><circle r="47" cx="110" cy="306"></circle><circle r="32" cx="7" cy="139"></circle><circle r="59" cx="688" cy="10"></circle><circle r="63" cx="527" cy="24"></circle><circle r="56" cx="329" cy="236"></circle><circle r="63" cx="134" cy="596"></circle><circle r="57" cx="869" cy="18"></circle><circle r="28" cx="833" cy="420"></circle><circle r="51" cx="463" cy="228"></circle><circle r="37" cx="877" cy="222"></circle><circle r="45" cx="172" cy="173"></circle><circle r="42" cx="428" cy="488"></circle><circle r="34" cx="637" cy="155"></circle><circle r="59" cx="507" cy="363"></circle><circle r="57" cx="344" cy="367"></circle><circle r="51" cx="773" cy="138"></circle><circle r="51" cx="889" cy="579"></circle></g></svg>